<?xml version="1.0" encoding="UTF-8" standalone="no"?>
<!DOCTYPE svg PUBLIC "-//W3C//DTD SVG 1.1//EN"
 "http://www.w3.org/Graphics/SVG/1.1/DTD/svg11.dtd">
<!-- Generated by graphviz version 2.43.0 (0)
 -->
<!-- Title: %3 Pages: 1 -->
<svg width="828pt" height="332pt"
 viewBox="0.00 0.00 827.64 332.29" xmlns="http://www.w3.org/2000/svg" xmlns:xlink="http://www.w3.org/1999/xlink">
<g id="graph0" class="graph" transform="scale(1 1) rotate(0) translate(4 328.29)">
<title>%3</title>
<polygon fill="white" stroke="transparent" points="-4,4 -4,-328.29 823.64,-328.29 823.64,4 -4,4"/>
<!-- 6963102681016691536 -->
<g id="node1" class="node">
<title>6963102681016691536</title>
<ellipse fill="none" stroke="black" cx="422.6" cy="-221.74" rx="30.59" ry="30.59"/>
<text text-anchor="middle" x="422.6" y="-218.04" font-family="Helvetica,sans-Serif" font-size="14.00">sum</text>
</g>
<!-- 8498986861376409569 -->
<g id="node2" class="node">
<title>8498986861376409569</title>
<polygon fill="none" stroke="black" points="449.6,-324.29 395.6,-324.29 395.6,-288.29 449.6,-288.29 449.6,-324.29"/>
</g>
<!-- 6963102681016691536&#45;&gt;8498986861376409569 -->
<g id="edge1" class="edge">
<title>6963102681016691536&#45;&gt;8498986861376409569</title>
<path fill="none" stroke="black" d="M422.6,-252.54C422.6,-260.89 422.6,-269.92 422.6,-278.11"/>
<polygon fill="black" stroke="black" points="419.1,-278.26 422.6,-288.26 426.1,-278.26 419.1,-278.26"/>
</g>
<!-- 8536608545317017029 -->
<g id="node3" class="node">
<title>8536608545317017029</title>
<polygon fill="none" stroke="black" points="75.6,-155.19 21.6,-155.19 21.6,-119.19 75.6,-119.19 75.6,-155.19"/>
</g>
<!-- 8536608545317017029&#45;&gt;6963102681016691536 -->
<g id="edge2" class="edge">
<title>8536608545317017029&#45;&gt;6963102681016691536</title>
<path fill="none" stroke="black" d="M75.89,-150.11C80.73,-151.97 85.77,-153.75 90.6,-155.19 193.8,-185.96 319.42,-206.27 382.44,-215.33"/>
<polygon fill="black" stroke="black" points="381.98,-218.8 392.37,-216.74 382.96,-211.87 381.98,-218.8"/>
</g>
<!-- 7510515292173987526 -->
<g id="node4" class="node">
<title>7510515292173987526</title>
<polygon fill="none" stroke="black" points="153.6,-155.19 99.6,-155.19 99.6,-119.19 153.6,-119.19 153.6,-155.19"/>
</g>
<!-- 7510515292173987526&#45;&gt;6963102681016691536 -->
<g id="edge3" class="edge">
<title>7510515292173987526&#45;&gt;6963102681016691536</title>
<path fill="none" stroke="black" d="M153.77,-147.38C161.74,-149.99 170.49,-152.78 178.6,-155.19 250.42,-176.56 335.05,-198.6 383.41,-210.9"/>
<polygon fill="black" stroke="black" points="382.6,-214.31 393.16,-213.37 384.32,-207.52 382.6,-214.31"/>
</g>
<!-- 2930013070871304935 -->
<g id="node5" class="node">
<title>2930013070871304935</title>
<polygon fill="none" stroke="black" points="241.6,-155.19 187.6,-155.19 187.6,-119.19 241.6,-119.19 241.6,-155.19"/>
</g>
<!-- 2930013070871304935&#45;&gt;6963102681016691536 -->
<g id="edge4" class="edge">
<title>2930013070871304935&#45;&gt;6963102681016691536</title>
<path fill="none" stroke="black" d="M241.81,-150.22C245.75,-151.92 249.77,-153.62 253.6,-155.19 298.23,-173.57 350.03,-193.45 384.4,-206.44"/>
<polygon fill="black" stroke="black" points="383.46,-209.82 394.05,-210.08 385.93,-203.27 383.46,-209.82"/>
</g>
<!-- &#45;8136374557520819540 -->
<g id="node6" class="node">
<title>&#45;8136374557520819540</title>
<polygon fill="none" stroke="black" points="316.6,-155.19 262.6,-155.19 262.6,-119.19 316.6,-119.19 316.6,-155.19"/>
</g>
<!-- &#45;8136374557520819540&#45;&gt;6963102681016691536 -->
<g id="edge5" class="edge">
<title>&#45;8136374557520819540&#45;&gt;6963102681016691536</title>
<path fill="none" stroke="black" d="M316.83,-155.1C337.4,-167.87 365.79,-185.48 387.97,-199.25"/>
<polygon fill="black" stroke="black" points="386.41,-202.4 396.75,-204.7 390.1,-196.45 386.41,-202.4"/>
</g>
<!-- &#45;3739293393207442898 -->
<g id="node7" class="node">
<title>&#45;3739293393207442898</title>
<polygon fill="none" stroke="black" points="406.6,-155.19 352.6,-155.19 352.6,-119.19 406.6,-119.19 406.6,-155.19"/>
</g>
<!-- &#45;3739293393207442898&#45;&gt;6963102681016691536 -->
<g id="edge6" class="edge">
<title>&#45;3739293393207442898&#45;&gt;6963102681016691536</title>
<path fill="none" stroke="black" d="M388.51,-155.3C393.03,-163.99 398.71,-174.89 404.13,-185.29"/>
<polygon fill="black" stroke="black" points="401.06,-186.98 408.79,-194.23 407.27,-183.74 401.06,-186.98"/>
</g>
<!-- &#45;972880200228687342 -->
<g id="node8" class="node">
<title>&#45;972880200228687342</title>
<polygon fill="none" stroke="black" points="492.6,-155.19 438.6,-155.19 438.6,-119.19 492.6,-119.19 492.6,-155.19"/>
</g>
<!-- &#45;972880200228687342&#45;&gt;6963102681016691536 -->
<g id="edge7" class="edge">
<title>&#45;972880200228687342&#45;&gt;6963102681016691536</title>
<path fill="none" stroke="black" d="M456.69,-155.3C452.16,-163.99 446.48,-174.89 441.06,-185.29"/>
<polygon fill="black" stroke="black" points="437.92,-183.74 436.41,-194.23 444.13,-186.98 437.92,-183.74"/>
</g>
<!-- 5227150893672475766 -->
<g id="node9" class="node">
<title>5227150893672475766</title>
<polygon fill="none" stroke="black" points="574.6,-155.19 520.6,-155.19 520.6,-119.19 574.6,-119.19 574.6,-155.19"/>
</g>
<!-- 5227150893672475766&#45;&gt;6963102681016691536 -->
<g id="edge8" class="edge">
<title>5227150893672475766&#45;&gt;6963102681016691536</title>
<path fill="none" stroke="black" d="M521.7,-155.3C502.8,-167.78 477.01,-184.81 456.48,-198.37"/>
<polygon fill="black" stroke="black" points="454.45,-195.51 448.04,-203.94 458.31,-201.35 454.45,-195.51"/>
</g>
<!-- 1971077455686766934 -->
<g id="node10" class="node">
<title>1971077455686766934</title>
<polygon fill="none" stroke="black" points="651.6,-155.19 597.6,-155.19 597.6,-119.19 651.6,-119.19 651.6,-155.19"/>
</g>
<!-- 1971077455686766934&#45;&gt;6963102681016691536 -->
<g id="edge9" class="edge">
<title>1971077455686766934&#45;&gt;6963102681016691536</title>
<path fill="none" stroke="black" d="M597.26,-149.56C592.7,-151.44 588.02,-153.38 583.6,-155.19 541.48,-172.5 493.07,-192.18 460.43,-205.42"/>
<polygon fill="black" stroke="black" points="458.78,-202.31 450.83,-209.31 461.41,-208.8 458.78,-202.31"/>
</g>
<!-- 8852036729963828700 -->
<g id="node11" class="node">
<title>8852036729963828700</title>
<polygon fill="none" stroke="black" points="732.6,-155.19 678.6,-155.19 678.6,-119.19 732.6,-119.19 732.6,-155.19"/>
</g>
<!-- 8852036729963828700&#45;&gt;6963102681016691536 -->
<g id="edge10" class="edge">
<title>8852036729963828700&#45;&gt;6963102681016691536</title>
<path fill="none" stroke="black" d="M678.13,-149.03C672.37,-151.17 666.31,-153.33 660.6,-155.19 591.5,-177.7 509.53,-199.15 462.04,-211.07"/>
<polygon fill="black" stroke="black" points="461.02,-207.71 452.17,-213.53 462.72,-214.51 461.02,-207.71"/>
</g>
<!-- &#45;3697488758567899395 -->
<g id="node12" class="node">
<title>&#45;3697488758567899395</title>
<polygon fill="none" stroke="black" points="814.6,-155.19 760.6,-155.19 760.6,-119.19 814.6,-119.19 814.6,-155.19"/>
</g>
<!-- &#45;3697488758567899395&#45;&gt;6963102681016691536 -->
<g id="edge11" class="edge">
<title>&#45;3697488758567899395&#45;&gt;6963102681016691536</title>
<path fill="none" stroke="black" d="M760.58,-148.95C754.4,-151.19 747.82,-153.41 741.6,-155.19 642.93,-183.39 523.82,-204.55 462.85,-214.48"/>
<polygon fill="black" stroke="black" points="462.18,-211.04 452.87,-216.09 463.3,-217.95 462.18,-211.04"/>
</g>
<!-- 5587749854761951207 -->
<g id="node13" class="node">
<title>5587749854761951207</title>
<ellipse fill="none" stroke="black" cx="561.6" cy="-41.6" rx="24.1" ry="24.1"/>
<text text-anchor="middle" x="561.6" y="-37.9" font-family="Helvetica,sans-Serif" font-size="14.00">inc</text>
</g>
<!-- 5587749854761951207&#45;&gt;5227150893672475766 -->
<g id="edge12" class="edge">
<title>5587749854761951207&#45;&gt;5227150893672475766</title>
<path fill="none" stroke="black" d="M558.14,-65.73C556.19,-78.72 553.76,-95 551.72,-108.64"/>
<polygon fill="black" stroke="black" points="548.2,-108.5 550.18,-118.9 555.12,-109.53 548.2,-108.5"/>
</g>
<!-- &#45;5991748047684180645 -->
<g id="node14" class="node">
<title>&#45;5991748047684180645</title>
<ellipse fill="none" stroke="black" cx="711.6" cy="-41.6" rx="41.69" ry="41.69"/>
<text text-anchor="middle" x="711.6" y="-37.9" font-family="Helvetica,sans-Serif" font-size="14.00">double</text>
</g>
<!-- &#45;5991748047684180645&#45;&gt;8852036729963828700 -->
<g id="edge13" class="edge">
<title>&#45;5991748047684180645&#45;&gt;8852036729963828700</title>
<path fill="none" stroke="black" d="M708.98,-83.38C708.43,-91.91 707.87,-100.72 707.36,-108.63"/>
<polygon fill="black" stroke="black" points="703.86,-108.57 706.71,-118.77 710.85,-109.01 703.86,-108.57"/>
</g>
<!-- &#45;8060831437665479322 -->
<g id="node15" class="node">
<title>&#45;8060831437665479322</title>
<ellipse fill="none" stroke="black" cx="191.6" cy="-41.6" rx="24.1" ry="24.1"/>
<text text-anchor="middle" x="191.6" y="-37.9" font-family="Helvetica,sans-Serif" font-size="14.00">inc</text>
</g>
<!-- &#45;8060831437665479322&#45;&gt;2930013070871304935 -->
<g id="edge14" class="edge">
<title>&#45;8060831437665479322&#45;&gt;2930013070871304935</title>
<path fill="none" stroke="black" d="M197.16,-65.25C200.41,-78.45 204.51,-95.16 207.93,-109.05"/>
<polygon fill="black" stroke="black" points="204.59,-110.15 210.38,-119.02 211.39,-108.48 204.59,-110.15"/>
</g>
<!-- 7301922172201302992 -->
<g id="node16" class="node">
<title>7301922172201302992</title>
<ellipse fill="none" stroke="black" cx="376.6" cy="-41.6" rx="41.69" ry="41.69"/>
<text text-anchor="middle" x="376.6" y="-37.9" font-family="Helvetica,sans-Serif" font-size="14.00">double</text>
</g>
<!-- 7301922172201302992&#45;&gt;&#45;3739293393207442898 -->
<g id="edge15" class="edge">
<title>7301922172201302992&#45;&gt;&#45;3739293393207442898</title>
<path fill="none" stroke="black" d="M377.9,-83.38C378.18,-91.91 378.46,-100.72 378.71,-108.63"/>
<polygon fill="black" stroke="black" points="375.22,-108.89 379.04,-118.77 382.22,-108.66 375.22,-108.89"/>
</g>
<!-- &#45;2292234043429190863 -->
<g id="node17" class="node">
<title>&#45;2292234043429190863</title>
<ellipse fill="none" stroke="black" cx="125.6" cy="-41.6" rx="24.1" ry="24.1"/>
<text text-anchor="middle" x="125.6" y="-37.9" font-family="Helvetica,sans-Serif" font-size="14.00">inc</text>
</g>
<!-- &#45;2292234043429190863&#45;&gt;7510515292173987526 -->
<g id="edge16" class="edge">
<title>&#45;2292234043429190863&#45;&gt;7510515292173987526</title>
<path fill="none" stroke="black" d="M125.84,-65.73C125.98,-78.72 126.16,-95 126.3,-108.64"/>
<polygon fill="black" stroke="black" points="122.8,-108.94 126.41,-118.9 129.8,-108.87 122.8,-108.94"/>
</g>
<!-- &#45;2165035318816061162 -->
<g id="node18" class="node">
<title>&#45;2165035318816061162</title>
<ellipse fill="none" stroke="black" cx="477.6" cy="-41.6" rx="41.69" ry="41.69"/>
<text text-anchor="middle" x="477.6" y="-37.9" font-family="Helvetica,sans-Serif" font-size="14.00">double</text>
</g>
<!-- &#45;2165035318816061162&#45;&gt;&#45;972880200228687342 -->
<g id="edge17" class="edge">
<title>&#45;2165035318816061162&#45;&gt;&#45;972880200228687342</title>
<path fill="none" stroke="black" d="M472.4,-83.1C471.28,-91.9 470.11,-100.99 469.07,-109.12"/>
<polygon fill="black" stroke="black" points="465.58,-108.77 467.78,-119.13 472.53,-109.66 465.58,-108.77"/>
</g>
<!-- &#45;2983606512822375332 -->
<g id="node19" class="node">
<title>&#45;2983606512822375332</title>
<ellipse fill="none" stroke="black" cx="627.6" cy="-41.6" rx="24.1" ry="24.1"/>
<text text-anchor="middle" x="627.6" y="-37.9" font-family="Helvetica,sans-Serif" font-size="14.00">inc</text>
</g>
<!-- &#45;2983606512822375332&#45;&gt;1971077455686766934 -->
<g id="edge18" class="edge">
<title>&#45;2983606512822375332&#45;&gt;1971077455686766934</title>
<path fill="none" stroke="black" d="M626.85,-65.73C626.44,-78.72 625.92,-95 625.48,-108.64"/>
<polygon fill="black" stroke="black" points="621.97,-108.8 625.15,-118.9 628.97,-109.02 621.97,-108.8"/>
</g>
<!-- &#45;6540263700524893900 -->
<g id="node20" class="node">
<title>&#45;6540263700524893900</title>
<ellipse fill="none" stroke="black" cx="275.6" cy="-41.6" rx="41.69" ry="41.69"/>
<text text-anchor="middle" x="275.6" y="-37.9" font-family="Helvetica,sans-Serif" font-size="14.00">double</text>
</g>
<!-- &#45;6540263700524893900&#45;&gt;&#45;8136374557520819540 -->
<g id="edge19" class="edge">
<title>&#45;6540263700524893900&#45;&gt;&#45;8136374557520819540</title>
<path fill="none" stroke="black" d="M281.61,-82.83C282.93,-91.65 284.3,-100.79 285.52,-108.96"/>
<polygon fill="black" stroke="black" points="282.09,-109.65 287.03,-119.03 289.01,-108.62 282.09,-109.65"/>
</g>
<!-- 4828051831062381004 -->
<g id="node21" class="node">
<title>4828051831062381004</title>
<ellipse fill="none" stroke="black" cx="795.6" cy="-41.6" rx="24.1" ry="24.1"/>
<text text-anchor="middle" x="795.6" y="-37.9" font-family="Helvetica,sans-Serif" font-size="14.00">inc</text>
</g>
<!-- 4828051831062381004&#45;&gt;&#45;3697488758567899395 -->
<g id="edge20" class="edge">
<title>4828051831062381004&#45;&gt;&#45;3697488758567899395</title>
<path fill="none" stroke="black" d="M793.62,-65.73C792.51,-78.72 791.12,-95 789.95,-108.64"/>
<polygon fill="black" stroke="black" points="786.44,-108.64 789.07,-118.9 793.41,-109.24 786.44,-108.64"/>
</g>
<!-- 7017448613950534901 -->
<g id="node22" class="node">
<title>7017448613950534901</title>
<ellipse fill="none" stroke="black" cx="41.6" cy="-41.6" rx="41.69" ry="41.69"/>
<text text-anchor="middle" x="41.6" y="-37.9" font-family="Helvetica,sans-Serif" font-size="14.00">double</text>
</g>
<!-- 7017448613950534901&#45;&gt;8536608545317017029 -->
<g id="edge21" class="edge">
<title>7017448613950534901&#45;&gt;8536608545317017029</title>
<path fill="none" stroke="black" d="M44.63,-83.1C45.28,-91.9 45.96,-100.99 46.57,-109.12"/>
<polygon fill="black" stroke="black" points="43.08,-109.42 47.32,-119.13 50.06,-108.9 43.08,-109.42"/>
</g>
</g>
</svg>
