<?xml version="1.0" encoding="UTF-8" standalone="no"?>
<!DOCTYPE svg PUBLIC "-//W3C//DTD SVG 1.1//EN"
 "http://www.w3.org/Graphics/SVG/1.1/DTD/svg11.dtd">
<!-- Generated by graphviz version 2.43.0 (0)
 -->
<!-- Title: %3 Pages: 1 -->
<svg width="828pt" height="332pt"
 viewBox="0.00 0.00 827.64 332.29" xmlns="http://www.w3.org/2000/svg" xmlns:xlink="http://www.w3.org/1999/xlink">
<g id="graph0" class="graph" transform="scale(1 1) rotate(0) translate(4 328.29)">
<title>%3</title>
<polygon fill="white" stroke="transparent" points="-4,4 -4,-328.29 823.64,-328.29 823.64,4 -4,4"/>
<!-- 4041129345254572063 -->
<g id="node1" class="node">
<title>4041129345254572063</title>
<ellipse fill="none" stroke="black" cx="401.6" cy="-221.74" rx="30.59" ry="30.59"/>
<text text-anchor="middle" x="401.6" y="-218.04" font-family="Helvetica,sans-Serif" font-size="14.00">sum</text>
</g>
<!-- &#45;4568786576774058305 -->
<g id="node2" class="node">
<title>&#45;4568786576774058305</title>
<polygon fill="none" stroke="black" points="428.6,-324.29 374.6,-324.29 374.6,-288.29 428.6,-288.29 428.6,-324.29"/>
</g>
<!-- 4041129345254572063&#45;&gt;&#45;4568786576774058305 -->
<g id="edge1" class="edge">
<title>4041129345254572063&#45;&gt;&#45;4568786576774058305</title>
<path fill="none" stroke="black" d="M401.6,-252.54C401.6,-260.89 401.6,-269.92 401.6,-278.11"/>
<polygon fill="black" stroke="black" points="398.1,-278.26 401.6,-288.26 405.1,-278.26 398.1,-278.26"/>
</g>
<!-- &#45;5453459515970872832 -->
<g id="node3" class="node">
<title>&#45;5453459515970872832</title>
<polygon fill="none" stroke="black" points="75.6,-155.19 21.6,-155.19 21.6,-119.19 75.6,-119.19 75.6,-155.19"/>
</g>
<!-- &#45;5453459515970872832&#45;&gt;4041129345254572063 -->
<g id="edge2" class="edge">
<title>&#45;5453459515970872832&#45;&gt;4041129345254572063</title>
<path fill="none" stroke="black" d="M75.91,-150.06C80.75,-151.93 85.78,-153.72 90.6,-155.19 185.69,-184.21 300.99,-204.85 360.94,-214.53"/>
<polygon fill="black" stroke="black" points="360.7,-218.04 371.12,-216.16 361.8,-211.13 360.7,-218.04"/>
</g>
<!-- 1375082468125972898 -->
<g id="node4" class="node">
<title>1375082468125972898</title>
<polygon fill="none" stroke="black" points="153.6,-155.19 99.6,-155.19 99.6,-119.19 153.6,-119.19 153.6,-155.19"/>
</g>
<!-- 1375082468125972898&#45;&gt;4041129345254572063 -->
<g id="edge3" class="edge">
<title>1375082468125972898&#45;&gt;4041129345254572063</title>
<path fill="none" stroke="black" d="M153.92,-149.2C159.41,-151.28 165.16,-153.38 170.6,-155.19 237.13,-177.43 316,-198.76 362.25,-210.76"/>
<polygon fill="black" stroke="black" points="361.6,-214.21 372.16,-213.32 363.35,-207.43 361.6,-214.21"/>
</g>
<!-- &#45;6559457593395463197 -->
<g id="node5" class="node">
<title>&#45;6559457593395463197</title>
<polygon fill="none" stroke="black" points="233.6,-155.19 179.6,-155.19 179.6,-119.19 233.6,-119.19 233.6,-155.19"/>
</g>
<!-- &#45;6559457593395463197&#45;&gt;4041129345254572063 -->
<g id="edge4" class="edge">
<title>&#45;6559457593395463197&#45;&gt;4041129345254572063</title>
<path fill="none" stroke="black" d="M233.85,-150.13C237.79,-151.84 241.79,-153.57 245.6,-155.19 286.1,-172.53 332.69,-192.05 364.33,-205.25"/>
<polygon fill="black" stroke="black" points="363.07,-208.51 373.65,-209.13 365.77,-202.05 363.07,-208.51"/>
</g>
<!-- &#45;7941958595933204860 -->
<g id="node6" class="node">
<title>&#45;7941958595933204860</title>
<polygon fill="none" stroke="black" points="308.6,-155.19 254.6,-155.19 254.6,-119.19 308.6,-119.19 308.6,-155.19"/>
</g>
<!-- &#45;7941958595933204860&#45;&gt;4041129345254572063 -->
<g id="edge5" class="edge">
<title>&#45;7941958595933204860&#45;&gt;4041129345254572063</title>
<path fill="none" stroke="black" d="M306.46,-155.3C324.4,-167.64 348.81,-184.43 368.41,-197.91"/>
<polygon fill="black" stroke="black" points="366.54,-200.87 376.76,-203.66 370.51,-195.11 366.54,-200.87"/>
</g>
<!-- &#45;8727279573495177491 -->
<g id="node7" class="node">
<title>&#45;8727279573495177491</title>
<polygon fill="none" stroke="black" points="389.6,-155.19 335.6,-155.19 335.6,-119.19 389.6,-119.19 389.6,-155.19"/>
</g>
<!-- &#45;8727279573495177491&#45;&gt;4041129345254572063 -->
<g id="edge6" class="edge">
<title>&#45;8727279573495177491&#45;&gt;4041129345254572063</title>
<path fill="none" stroke="black" d="M370.68,-155.3C374.71,-163.83 379.75,-174.49 384.58,-184.71"/>
<polygon fill="black" stroke="black" points="381.48,-186.36 388.92,-193.91 387.81,-183.37 381.48,-186.36"/>
</g>
<!-- &#45;3912365055671440018 -->
<g id="node8" class="node">
<title>&#45;3912365055671440018</title>
<polygon fill="none" stroke="black" points="467.6,-155.19 413.6,-155.19 413.6,-119.19 467.6,-119.19 467.6,-155.19"/>
</g>
<!-- &#45;3912365055671440018&#45;&gt;4041129345254572063 -->
<g id="edge7" class="edge">
<title>&#45;3912365055671440018&#45;&gt;4041129345254572063</title>
<path fill="none" stroke="black" d="M432.52,-155.3C428.48,-163.83 423.45,-174.49 418.62,-184.71"/>
<polygon fill="black" stroke="black" points="415.38,-183.37 414.27,-193.91 421.71,-186.36 415.38,-183.37"/>
</g>
<!-- 754957487250381840 -->
<g id="node9" class="node">
<title>754957487250381840</title>
<polygon fill="none" stroke="black" points="556.6,-155.19 502.6,-155.19 502.6,-119.19 556.6,-119.19 556.6,-155.19"/>
</g>
<!-- 754957487250381840&#45;&gt;4041129345254572063 -->
<g id="edge8" class="edge">
<title>754957487250381840&#45;&gt;4041129345254572063</title>
<path fill="none" stroke="black" d="M503.07,-155.3C483.6,-167.86 456.97,-185.03 435.87,-198.63"/>
<polygon fill="black" stroke="black" points="433.72,-195.86 427.21,-204.22 437.51,-201.74 433.72,-195.86"/>
</g>
<!-- &#45;5156362728838024042 -->
<g id="node10" class="node">
<title>&#45;5156362728838024042</title>
<polygon fill="none" stroke="black" points="651.6,-155.19 597.6,-155.19 597.6,-119.19 651.6,-119.19 651.6,-155.19"/>
</g>
<!-- &#45;5156362728838024042&#45;&gt;4041129345254572063 -->
<g id="edge9" class="edge">
<title>&#45;5156362728838024042&#45;&gt;4041129345254572063</title>
<path fill="none" stroke="black" d="M597.25,-148.31C557.79,-162.92 484.69,-189.98 439.88,-206.57"/>
<polygon fill="black" stroke="black" points="438.39,-203.39 430.22,-210.14 440.82,-209.95 438.39,-203.39"/>
</g>
<!-- &#45;6877127928037479529 -->
<g id="node11" class="node">
<title>&#45;6877127928037479529</title>
<polygon fill="none" stroke="black" points="738.6,-155.19 684.6,-155.19 684.6,-119.19 738.6,-119.19 738.6,-155.19"/>
</g>
<!-- &#45;6877127928037479529&#45;&gt;4041129345254572063 -->
<g id="edge10" class="edge">
<title>&#45;6877127928037479529&#45;&gt;4041129345254572063</title>
<path fill="none" stroke="black" d="M684.45,-147.65C676.78,-150.22 668.39,-152.91 660.6,-155.19 583.55,-177.75 492.3,-199.77 441.27,-211.66"/>
<polygon fill="black" stroke="black" points="440.26,-208.3 431.31,-213.97 441.84,-215.12 440.26,-208.3"/>
</g>
<!-- &#45;6364102858902336482 -->
<g id="node12" class="node">
<title>&#45;6364102858902336482</title>
<polygon fill="none" stroke="black" points="817.6,-155.19 763.6,-155.19 763.6,-119.19 817.6,-119.19 817.6,-155.19"/>
</g>
<!-- &#45;6364102858902336482&#45;&gt;4041129345254572063 -->
<g id="edge11" class="edge">
<title>&#45;6364102858902336482&#45;&gt;4041129345254572063</title>
<path fill="none" stroke="black" d="M763.57,-149.77C758.33,-151.76 752.84,-153.67 747.6,-155.19 639.4,-186.52 507.72,-206.71 442.41,-215.56"/>
<polygon fill="black" stroke="black" points="441.58,-212.14 432.13,-216.94 442.51,-219.08 441.58,-212.14"/>
</g>
<!-- &#45;2376633118901524503 -->
<g id="node13" class="node">
<title>&#45;2376633118901524503</title>
<ellipse fill="none" stroke="black" cx="191.6" cy="-41.6" rx="24.1" ry="24.1"/>
<text text-anchor="middle" x="191.6" y="-37.9" font-family="Helvetica,sans-Serif" font-size="14.00">inc</text>
</g>
<!-- &#45;2376633118901524503&#45;&gt;&#45;6559457593395463197 -->
<g id="edge12" class="edge">
<title>&#45;2376633118901524503&#45;&gt;&#45;6559457593395463197</title>
<path fill="none" stroke="black" d="M195.3,-65.73C197.39,-78.72 199.99,-95 202.18,-108.64"/>
<polygon fill="black" stroke="black" points="198.79,-109.58 203.83,-118.9 205.7,-108.48 198.79,-109.58"/>
</g>
<!-- &#45;5242310346841386494 -->
<g id="node14" class="node">
<title>&#45;5242310346841386494</title>
<ellipse fill="none" stroke="black" cx="41.6" cy="-41.6" rx="41.69" ry="41.69"/>
<text text-anchor="middle" x="41.6" y="-37.9" font-family="Helvetica,sans-Serif" font-size="14.00">double</text>
</g>
<!-- &#45;5242310346841386494&#45;&gt;&#45;5453459515970872832 -->
<g id="edge13" class="edge">
<title>&#45;5242310346841386494&#45;&gt;&#45;5453459515970872832</title>
<path fill="none" stroke="black" d="M44.63,-83.1C45.28,-91.9 45.96,-100.99 46.57,-109.12"/>
<polygon fill="black" stroke="black" points="43.08,-109.42 47.32,-119.13 50.06,-108.9 43.08,-109.42"/>
</g>
<!-- 7260362882097349578 -->
<g id="node15" class="node">
<title>7260362882097349578</title>
<ellipse fill="none" stroke="black" cx="795.6" cy="-41.6" rx="24.1" ry="24.1"/>
<text text-anchor="middle" x="795.6" y="-37.9" font-family="Helvetica,sans-Serif" font-size="14.00">inc</text>
</g>
<!-- 7260362882097349578&#45;&gt;&#45;6364102858902336482 -->
<g id="edge14" class="edge">
<title>7260362882097349578&#45;&gt;&#45;6364102858902336482</title>
<path fill="none" stroke="black" d="M794.36,-65.73C793.67,-78.72 792.8,-95 792.07,-108.64"/>
<polygon fill="black" stroke="black" points="788.56,-108.73 791.52,-118.9 795.55,-109.1 788.56,-108.73"/>
</g>
<!-- &#45;2879172342385460770 -->
<g id="node16" class="node">
<title>&#45;2879172342385460770</title>
<ellipse fill="none" stroke="black" cx="645.6" cy="-41.6" rx="41.69" ry="41.69"/>
<text text-anchor="middle" x="645.6" y="-37.9" font-family="Helvetica,sans-Serif" font-size="14.00">double</text>
</g>
<!-- &#45;2879172342385460770&#45;&gt;&#45;5156362728838024042 -->
<g id="edge15" class="edge">
<title>&#45;2879172342385460770&#45;&gt;&#45;5156362728838024042</title>
<path fill="none" stroke="black" d="M636.69,-82.29C634.68,-91.26 632.59,-100.58 630.72,-108.9"/>
<polygon fill="black" stroke="black" points="627.27,-108.28 628.5,-118.81 634.1,-109.82 627.27,-108.28"/>
</g>
<!-- &#45;6487380862090860601 -->
<g id="node17" class="node">
<title>&#45;6487380862090860601</title>
<ellipse fill="none" stroke="black" cx="125.6" cy="-41.6" rx="24.1" ry="24.1"/>
<text text-anchor="middle" x="125.6" y="-37.9" font-family="Helvetica,sans-Serif" font-size="14.00">inc</text>
</g>
<!-- &#45;6487380862090860601&#45;&gt;1375082468125972898 -->
<g id="edge16" class="edge">
<title>&#45;6487380862090860601&#45;&gt;1375082468125972898</title>
<path fill="none" stroke="black" d="M125.84,-65.73C125.98,-78.72 126.16,-95 126.3,-108.64"/>
<polygon fill="black" stroke="black" points="122.8,-108.94 126.41,-118.9 129.8,-108.87 122.8,-108.94"/>
</g>
<!-- 6480206041683405466 -->
<g id="node18" class="node">
<title>6480206041683405466</title>
<ellipse fill="none" stroke="black" cx="275.6" cy="-41.6" rx="41.69" ry="41.69"/>
<text text-anchor="middle" x="275.6" y="-37.9" font-family="Helvetica,sans-Serif" font-size="14.00">double</text>
</g>
<!-- 6480206041683405466&#45;&gt;&#45;7941958595933204860 -->
<g id="edge17" class="edge">
<title>6480206041683405466&#45;&gt;&#45;7941958595933204860</title>
<path fill="none" stroke="black" d="M278.21,-83.38C278.76,-91.91 279.32,-100.72 279.83,-108.63"/>
<polygon fill="black" stroke="black" points="276.35,-109.01 280.48,-118.77 283.33,-108.57 276.35,-109.01"/>
</g>
<!-- &#45;8809005372189532046 -->
<g id="node19" class="node">
<title>&#45;8809005372189532046</title>
<ellipse fill="none" stroke="black" cx="359.6" cy="-41.6" rx="24.1" ry="24.1"/>
<text text-anchor="middle" x="359.6" y="-37.9" font-family="Helvetica,sans-Serif" font-size="14.00">inc</text>
</g>
<!-- &#45;8809005372189532046&#45;&gt;&#45;8727279573495177491 -->
<g id="edge18" class="edge">
<title>&#45;8809005372189532046&#45;&gt;&#45;8727279573495177491</title>
<path fill="none" stroke="black" d="M360.34,-65.73C360.75,-78.72 361.28,-95 361.71,-108.64"/>
<polygon fill="black" stroke="black" points="358.22,-109.02 362.04,-118.9 365.22,-108.8 358.22,-109.02"/>
</g>
<!-- 2212098885649572422 -->
<g id="node20" class="node">
<title>2212098885649572422</title>
<ellipse fill="none" stroke="black" cx="443.6" cy="-41.6" rx="41.69" ry="41.69"/>
<text text-anchor="middle" x="443.6" y="-37.9" font-family="Helvetica,sans-Serif" font-size="14.00">double</text>
</g>
<!-- 2212098885649572422&#45;&gt;&#45;3912365055671440018 -->
<g id="edge19" class="edge">
<title>2212098885649572422&#45;&gt;&#45;3912365055671440018</title>
<path fill="none" stroke="black" d="M442.29,-83.38C442.02,-91.91 441.73,-100.72 441.48,-108.63"/>
<polygon fill="black" stroke="black" points="437.98,-108.66 441.15,-118.77 444.97,-108.89 437.98,-108.66"/>
</g>
<!-- 8771750246589494880 -->
<g id="node21" class="node">
<title>8771750246589494880</title>
<ellipse fill="none" stroke="black" cx="729.6" cy="-41.6" rx="24.1" ry="24.1"/>
<text text-anchor="middle" x="729.6" y="-37.9" font-family="Helvetica,sans-Serif" font-size="14.00">inc</text>
</g>
<!-- 8771750246589494880&#45;&gt;&#45;6877127928037479529 -->
<g id="edge20" class="edge">
<title>8771750246589494880&#45;&gt;&#45;6877127928037479529</title>
<path fill="none" stroke="black" d="M725.24,-65.25C722.7,-78.45 719.49,-95.16 716.82,-109.05"/>
<polygon fill="black" stroke="black" points="713.35,-108.54 714.9,-119.02 720.22,-109.86 713.35,-108.54"/>
</g>
<!-- &#45;2558225504503688277 -->
<g id="node22" class="node">
<title>&#45;2558225504503688277</title>
<ellipse fill="none" stroke="black" cx="544.6" cy="-41.6" rx="41.69" ry="41.69"/>
<text text-anchor="middle" x="544.6" y="-37.9" font-family="Helvetica,sans-Serif" font-size="14.00">double</text>
</g>
<!-- &#45;2558225504503688277&#45;&gt;754957487250381840 -->
<g id="edge21" class="edge">
<title>&#45;2558225504503688277&#45;&gt;754957487250381840</title>
<path fill="none" stroke="black" d="M538.15,-82.83C536.73,-91.65 535.27,-100.79 533.96,-108.96"/>
<polygon fill="black" stroke="black" points="530.47,-108.6 532.35,-119.03 537.39,-109.71 530.47,-108.6"/>
</g>
</g>
</svg>
