<?xml version="1.0" encoding="UTF-8" standalone="no"?>
<!DOCTYPE svg PUBLIC "-//W3C//DTD SVG 1.1//EN"
 "http://www.w3.org/Graphics/SVG/1.1/DTD/svg11.dtd">
<!-- Generated by graphviz version 2.43.0 (0)
 -->
<!-- Title: %3 Pages: 1 -->
<svg width="134pt" height="292pt"
 viewBox="0.00 0.00 134.00 291.99" xmlns="http://www.w3.org/2000/svg" xmlns:xlink="http://www.w3.org/1999/xlink">
<g id="graph0" class="graph" transform="scale(1 1) rotate(0) translate(4 287.99)">
<title>%3</title>
<polygon fill="white" stroke="transparent" points="-4,4 -4,-287.99 130,-287.99 130,4 -4,4"/>
<!-- &#45;6877695859365893251 -->
<g id="node1" class="node">
<title>&#45;6877695859365893251</title>
<ellipse fill="none" stroke="black" cx="63" cy="-184.04" rx="27.9" ry="27.9"/>
<text text-anchor="middle" x="63" y="-180.34" font-family="Helvetica,sans-Serif" font-size="14.00">add</text>
</g>
<!-- 7474451956049306897 -->
<g id="node2" class="node">
<title>7474451956049306897</title>
<polygon fill="none" stroke="black" points="90,-283.99 36,-283.99 36,-247.99 90,-247.99 90,-283.99"/>
</g>
<!-- &#45;6877695859365893251&#45;&gt;7474451956049306897 -->
<g id="edge1" class="edge">
<title>&#45;6877695859365893251&#45;&gt;7474451956049306897</title>
<path fill="none" stroke="black" d="M63,-212.11C63,-220.3 63,-229.3 63,-237.51"/>
<polygon fill="black" stroke="black" points="59.5,-237.73 63,-247.73 66.5,-237.73 59.5,-237.73"/>
</g>
<!-- 1503949987007456631 -->
<g id="node3" class="node">
<title>1503949987007456631</title>
<polygon fill="none" stroke="black" points="54,-120.1 0,-120.1 0,-84.1 54,-84.1 54,-120.1"/>
</g>
<!-- 1503949987007456631&#45;&gt;&#45;6877695859365893251 -->
<g id="edge2" class="edge">
<title>1503949987007456631&#45;&gt;&#45;6877695859365893251</title>
<path fill="none" stroke="black" d="M34.81,-120.44C38.57,-128.8 43.22,-139.11 47.65,-148.95"/>
<polygon fill="black" stroke="black" points="44.49,-150.46 51.79,-158.14 50.87,-147.59 44.49,-150.46"/>
</g>
<!-- 3477550781370381175 -->
<g id="node4" class="node">
<title>3477550781370381175</title>
<polygon fill="none" stroke="black" points="126,-120.1 72,-120.1 72,-84.1 126,-84.1 126,-120.1"/>
</g>
<!-- 3477550781370381175&#45;&gt;&#45;6877695859365893251 -->
<g id="edge3" class="edge">
<title>3477550781370381175&#45;&gt;&#45;6877695859365893251</title>
<path fill="none" stroke="black" d="M91.19,-120.44C87.43,-128.8 82.78,-139.11 78.35,-148.95"/>
<polygon fill="black" stroke="black" points="75.13,-147.59 74.21,-158.14 81.51,-150.46 75.13,-147.59"/>
</g>
<!-- 6232609569760345269 -->
<g id="node5" class="node">
<title>6232609569760345269</title>
<ellipse fill="none" stroke="black" cx="99" cy="-24.05" rx="24.1" ry="24.1"/>
<text text-anchor="middle" x="99" y="-20.35" font-family="Helvetica,sans-Serif" font-size="14.00">inc</text>
</g>
<!-- 6232609569760345269&#45;&gt;3477550781370381175 -->
<g id="edge4" class="edge">
<title>6232609569760345269&#45;&gt;3477550781370381175</title>
<path fill="none" stroke="black" d="M99,-48.28C99,-56.39 99,-65.56 99,-73.96"/>
<polygon fill="black" stroke="black" points="95.5,-74.04 99,-84.04 102.5,-74.04 95.5,-74.04"/>
</g>
<!-- &#45;881722827968071067 -->
<g id="node6" class="node">
<title>&#45;881722827968071067</title>
<ellipse fill="none" stroke="black" cx="27" cy="-24.05" rx="24.1" ry="24.1"/>
<text text-anchor="middle" x="27" y="-20.35" font-family="Helvetica,sans-Serif" font-size="14.00">inc</text>
</g>
<!-- &#45;881722827968071067&#45;&gt;1503949987007456631 -->
<g id="edge5" class="edge">
<title>&#45;881722827968071067&#45;&gt;1503949987007456631</title>
<path fill="none" stroke="black" d="M27,-48.28C27,-56.39 27,-65.56 27,-73.96"/>
<polygon fill="black" stroke="black" points="23.5,-74.04 27,-84.04 30.5,-74.04 23.5,-74.04"/>
</g>
</g>
</svg>
