<?xml version="1.0" encoding="UTF-8" standalone="no"?>
<!DOCTYPE svg PUBLIC "-//W3C//DTD SVG 1.1//EN"
 "http://www.w3.org/Graphics/SVG/1.1/DTD/svg11.dtd">
<!-- Generated by graphviz version 2.43.0 (0)
 -->
<!-- Title: %3 Pages: 1 -->
<svg width="566pt" height="297pt"
 viewBox="0.00 0.00 566.00 297.19" xmlns="http://www.w3.org/2000/svg" xmlns:xlink="http://www.w3.org/1999/xlink">
<g id="graph0" class="graph" transform="scale(1 1) rotate(0) translate(4 293.19)">
<title>%3</title>
<polygon fill="white" stroke="transparent" points="-4,4 -4,-293.19 562,-293.19 562,4 -4,4"/>
<!-- &#45;2675441027943653796 -->
<g id="node1" class="node">
<title>&#45;2675441027943653796</title>
<ellipse fill="none" stroke="black" cx="279" cy="-186.64" rx="30.59" ry="30.59"/>
<text text-anchor="middle" x="279" y="-182.94" font-family="Helvetica,sans-Serif" font-size="14.00">sum</text>
</g>
<!-- 1728432615986816687 -->
<g id="node2" class="node">
<title>1728432615986816687</title>
<polygon fill="none" stroke="black" points="306,-289.19 252,-289.19 252,-253.19 306,-253.19 306,-289.19"/>
</g>
<!-- &#45;2675441027943653796&#45;&gt;1728432615986816687 -->
<g id="edge1" class="edge">
<title>&#45;2675441027943653796&#45;&gt;1728432615986816687</title>
<path fill="none" stroke="black" d="M279,-217.44C279,-225.79 279,-234.82 279,-243.01"/>
<polygon fill="black" stroke="black" points="275.5,-243.16 279,-253.16 282.5,-243.16 275.5,-243.16"/>
</g>
<!-- &#45;2449875758952439744 -->
<g id="node3" class="node">
<title>&#45;2449875758952439744</title>
<polygon fill="none" stroke="black" points="54,-120.1 0,-120.1 0,-84.1 54,-84.1 54,-120.1"/>
</g>
<!-- &#45;2449875758952439744&#45;&gt;&#45;2675441027943653796 -->
<g id="edge2" class="edge">
<title>&#45;2449875758952439744&#45;&gt;&#45;2675441027943653796</title>
<path fill="none" stroke="black" d="M54.34,-116.51C57.24,-117.78 60.16,-119 63,-120.1 123.55,-143.44 196.15,-164.01 239.87,-175.63"/>
<polygon fill="black" stroke="black" points="238.98,-179.01 249.54,-178.18 240.77,-172.24 238.98,-179.01"/>
</g>
<!-- &#45;9116275356503140448 -->
<g id="node4" class="node">
<title>&#45;9116275356503140448</title>
<polygon fill="none" stroke="black" points="126,-120.1 72,-120.1 72,-84.1 126,-84.1 126,-120.1"/>
</g>
<!-- &#45;9116275356503140448&#45;&gt;&#45;2675441027943653796 -->
<g id="edge3" class="edge">
<title>&#45;9116275356503140448&#45;&gt;&#45;2675441027943653796</title>
<path fill="none" stroke="black" d="M126.11,-115.95C129.11,-117.35 132.12,-118.76 135,-120.1 171.27,-136.91 212.84,-155.8 241.97,-168.96"/>
<polygon fill="black" stroke="black" points="240.79,-172.27 251.34,-173.19 243.67,-165.89 240.79,-172.27"/>
</g>
<!-- 9071540844813480934 -->
<g id="node5" class="node">
<title>9071540844813480934</title>
<polygon fill="none" stroke="black" points="198,-120.1 144,-120.1 144,-84.1 198,-84.1 198,-120.1"/>
</g>
<!-- 9071540844813480934&#45;&gt;&#45;2675441027943653796 -->
<g id="edge4" class="edge">
<title>9071540844813480934&#45;&gt;&#45;2675441027943653796</title>
<path fill="none" stroke="black" d="M193.38,-120.2C208.88,-132.05 229.76,-148 247.01,-161.19"/>
<polygon fill="black" stroke="black" points="245.08,-164.12 255.15,-167.42 249.33,-158.56 245.08,-164.12"/>
</g>
<!-- 8416983202166473680 -->
<g id="node6" class="node">
<title>8416983202166473680</title>
<polygon fill="none" stroke="black" points="270,-120.1 216,-120.1 216,-84.1 270,-84.1 270,-120.1"/>
</g>
<!-- 8416983202166473680&#45;&gt;&#45;2675441027943653796 -->
<g id="edge5" class="edge">
<title>8416983202166473680&#45;&gt;&#45;2675441027943653796</title>
<path fill="none" stroke="black" d="M250.46,-120.2C254.08,-128.5 258.58,-138.82 262.93,-148.79"/>
<polygon fill="black" stroke="black" points="259.81,-150.4 267.02,-158.16 266.23,-147.6 259.81,-150.4"/>
</g>
<!-- 1451570914262887441 -->
<g id="node7" class="node">
<title>1451570914262887441</title>
<polygon fill="none" stroke="black" points="342,-120.1 288,-120.1 288,-84.1 342,-84.1 342,-120.1"/>
</g>
<!-- 1451570914262887441&#45;&gt;&#45;2675441027943653796 -->
<g id="edge6" class="edge">
<title>1451570914262887441&#45;&gt;&#45;2675441027943653796</title>
<path fill="none" stroke="black" d="M307.54,-120.2C303.92,-128.5 299.42,-138.82 295.07,-148.79"/>
<polygon fill="black" stroke="black" points="291.77,-147.6 290.98,-158.16 298.19,-150.4 291.77,-147.6"/>
</g>
<!-- &#45;2060903012870357197 -->
<g id="node8" class="node">
<title>&#45;2060903012870357197</title>
<polygon fill="none" stroke="black" points="414,-120.1 360,-120.1 360,-84.1 414,-84.1 414,-120.1"/>
</g>
<!-- &#45;2060903012870357197&#45;&gt;&#45;2675441027943653796 -->
<g id="edge7" class="edge">
<title>&#45;2060903012870357197&#45;&gt;&#45;2675441027943653796</title>
<path fill="none" stroke="black" d="M364.62,-120.2C349.12,-132.05 328.24,-148 310.99,-161.19"/>
<polygon fill="black" stroke="black" points="308.67,-158.56 302.85,-167.42 312.92,-164.12 308.67,-158.56"/>
</g>
<!-- 3032206297290410876 -->
<g id="node9" class="node">
<title>3032206297290410876</title>
<polygon fill="none" stroke="black" points="486,-120.1 432,-120.1 432,-84.1 486,-84.1 486,-120.1"/>
</g>
<!-- 3032206297290410876&#45;&gt;&#45;2675441027943653796 -->
<g id="edge8" class="edge">
<title>3032206297290410876&#45;&gt;&#45;2675441027943653796</title>
<path fill="none" stroke="black" d="M431.89,-115.95C428.89,-117.35 425.88,-118.76 423,-120.1 386.73,-136.91 345.16,-155.8 316.03,-168.96"/>
<polygon fill="black" stroke="black" points="314.33,-165.89 306.66,-173.19 317.21,-172.27 314.33,-165.89"/>
</g>
<!-- &#45;2420848870745026817 -->
<g id="node10" class="node">
<title>&#45;2420848870745026817</title>
<polygon fill="none" stroke="black" points="558,-120.1 504,-120.1 504,-84.1 558,-84.1 558,-120.1"/>
</g>
<!-- &#45;2420848870745026817&#45;&gt;&#45;2675441027943653796 -->
<g id="edge9" class="edge">
<title>&#45;2420848870745026817&#45;&gt;&#45;2675441027943653796</title>
<path fill="none" stroke="black" d="M503.66,-116.51C500.76,-117.78 497.84,-119 495,-120.1 434.45,-143.44 361.85,-164.01 318.13,-175.63"/>
<polygon fill="black" stroke="black" points="317.23,-172.24 308.46,-178.18 319.02,-179.01 317.23,-172.24"/>
</g>
<!-- &#45;679665804673641549 -->
<g id="node11" class="node">
<title>&#45;679665804673641549</title>
<ellipse fill="none" stroke="black" cx="315" cy="-24.05" rx="24.1" ry="24.1"/>
<text text-anchor="middle" x="315" y="-20.35" font-family="Helvetica,sans-Serif" font-size="14.00">inc</text>
</g>
<!-- &#45;679665804673641549&#45;&gt;1451570914262887441 -->
<g id="edge10" class="edge">
<title>&#45;679665804673641549&#45;&gt;1451570914262887441</title>
<path fill="none" stroke="black" d="M315,-48.28C315,-56.39 315,-65.56 315,-73.96"/>
<polygon fill="black" stroke="black" points="311.5,-74.04 315,-84.04 318.5,-74.04 311.5,-74.04"/>
</g>
<!-- 6386433077521712084 -->
<g id="node12" class="node">
<title>6386433077521712084</title>
<ellipse fill="none" stroke="black" cx="387" cy="-24.05" rx="24.1" ry="24.1"/>
<text text-anchor="middle" x="387" y="-20.35" font-family="Helvetica,sans-Serif" font-size="14.00">inc</text>
</g>
<!-- 6386433077521712084&#45;&gt;&#45;2060903012870357197 -->
<g id="edge11" class="edge">
<title>6386433077521712084&#45;&gt;&#45;2060903012870357197</title>
<path fill="none" stroke="black" d="M387,-48.28C387,-56.39 387,-65.56 387,-73.96"/>
<polygon fill="black" stroke="black" points="383.5,-74.04 387,-84.04 390.5,-74.04 383.5,-74.04"/>
</g>
<!-- 5605017067196314504 -->
<g id="node13" class="node">
<title>5605017067196314504</title>
<ellipse fill="none" stroke="black" cx="459" cy="-24.05" rx="24.1" ry="24.1"/>
<text text-anchor="middle" x="459" y="-20.35" font-family="Helvetica,sans-Serif" font-size="14.00">inc</text>
</g>
<!-- 5605017067196314504&#45;&gt;3032206297290410876 -->
<g id="edge12" class="edge">
<title>5605017067196314504&#45;&gt;3032206297290410876</title>
<path fill="none" stroke="black" d="M459,-48.28C459,-56.39 459,-65.56 459,-73.96"/>
<polygon fill="black" stroke="black" points="455.5,-74.04 459,-84.04 462.5,-74.04 455.5,-74.04"/>
</g>
<!-- &#45;54230177687526085 -->
<g id="node14" class="node">
<title>&#45;54230177687526085</title>
<ellipse fill="none" stroke="black" cx="531" cy="-24.05" rx="24.1" ry="24.1"/>
<text text-anchor="middle" x="531" y="-20.35" font-family="Helvetica,sans-Serif" font-size="14.00">inc</text>
</g>
<!-- &#45;54230177687526085&#45;&gt;&#45;2420848870745026817 -->
<g id="edge13" class="edge">
<title>&#45;54230177687526085&#45;&gt;&#45;2420848870745026817</title>
<path fill="none" stroke="black" d="M531,-48.28C531,-56.39 531,-65.56 531,-73.96"/>
<polygon fill="black" stroke="black" points="527.5,-74.04 531,-84.04 534.5,-74.04 527.5,-74.04"/>
</g>
<!-- 1883793462622425162 -->
<g id="node15" class="node">
<title>1883793462622425162</title>
<ellipse fill="none" stroke="black" cx="243" cy="-24.05" rx="24.1" ry="24.1"/>
<text text-anchor="middle" x="243" y="-20.35" font-family="Helvetica,sans-Serif" font-size="14.00">inc</text>
</g>
<!-- 1883793462622425162&#45;&gt;8416983202166473680 -->
<g id="edge14" class="edge">
<title>1883793462622425162&#45;&gt;8416983202166473680</title>
<path fill="none" stroke="black" d="M243,-48.28C243,-56.39 243,-65.56 243,-73.96"/>
<polygon fill="black" stroke="black" points="239.5,-74.04 243,-84.04 246.5,-74.04 239.5,-74.04"/>
</g>
<!-- &#45;737302150958115650 -->
<g id="node16" class="node">
<title>&#45;737302150958115650</title>
<ellipse fill="none" stroke="black" cx="27" cy="-24.05" rx="24.1" ry="24.1"/>
<text text-anchor="middle" x="27" y="-20.35" font-family="Helvetica,sans-Serif" font-size="14.00">inc</text>
</g>
<!-- &#45;737302150958115650&#45;&gt;&#45;2449875758952439744 -->
<g id="edge15" class="edge">
<title>&#45;737302150958115650&#45;&gt;&#45;2449875758952439744</title>
<path fill="none" stroke="black" d="M27,-48.28C27,-56.39 27,-65.56 27,-73.96"/>
<polygon fill="black" stroke="black" points="23.5,-74.04 27,-84.04 30.5,-74.04 23.5,-74.04"/>
</g>
<!-- &#45;75266670522053281 -->
<g id="node17" class="node">
<title>&#45;75266670522053281</title>
<ellipse fill="none" stroke="black" cx="171" cy="-24.05" rx="24.1" ry="24.1"/>
<text text-anchor="middle" x="171" y="-20.35" font-family="Helvetica,sans-Serif" font-size="14.00">inc</text>
</g>
<!-- &#45;75266670522053281&#45;&gt;9071540844813480934 -->
<g id="edge16" class="edge">
<title>&#45;75266670522053281&#45;&gt;9071540844813480934</title>
<path fill="none" stroke="black" d="M171,-48.28C171,-56.39 171,-65.56 171,-73.96"/>
<polygon fill="black" stroke="black" points="167.5,-74.04 171,-84.04 174.5,-74.04 167.5,-74.04"/>
</g>
<!-- 93691508218441202 -->
<g id="node18" class="node">
<title>93691508218441202</title>
<ellipse fill="none" stroke="black" cx="99" cy="-24.05" rx="24.1" ry="24.1"/>
<text text-anchor="middle" x="99" y="-20.35" font-family="Helvetica,sans-Serif" font-size="14.00">inc</text>
</g>
<!-- 93691508218441202&#45;&gt;&#45;9116275356503140448 -->
<g id="edge17" class="edge">
<title>93691508218441202&#45;&gt;&#45;9116275356503140448</title>
<path fill="none" stroke="black" d="M99,-48.28C99,-56.39 99,-65.56 99,-73.96"/>
<polygon fill="black" stroke="black" points="95.5,-74.04 99,-84.04 102.5,-74.04 95.5,-74.04"/>
</g>
</g>
</svg>
